<?xml version="1.0" encoding="utf-8"?>
<!-- Generator: Adobe Illustrator 24.2.1, SVG Export Plug-In . SVG Version: 6.00 Build 0)  -->
<svg version="1.1" id="Layer_1" xmlns="http://www.w3.org/2000/svg" xmlns:xlink="http://www.w3.org/1999/xlink" x="0px" y="0px"
	 viewBox="0 0 10 10" style="enable-background:new 0 0 10 10;" xml:space="preserve">
<style type="text/css">
	.st0{opacity:0.25;fill:#5E5B68;enable-background:new    ;}
	.st1{fill:#2E2E3D;}
	.st2{fill:#DC913E;}
	.st3{fill:#6176AF;}
	.st4{fill:#151514;}
	.st5{fill:#131211;}
	.st6{fill:#FFFFFF;}
	.st7{opacity:0.25;fill:#FFFFFF;enable-background:new    ;}
	.st8{fill:#1C1919;}
	.st9{fill:#272423;}
	.st10{fill:#292D1D;}
	.st11{fill:#232120;}
	.st12{fill:#090909;}
</style>
<g>
	<path class="st0" d="M3.74,7.44l1.01,0.37l1.45-0.59l1.19-1.17l0.32-2.57l0.23-0.72c0,0-0.42,0.27-1.16-0.14s-2-0.64-2-0.64
		L3.53,2.3L2.28,2.75L1.9,3.14L1.81,4.6l0.2,1.14l0.42,0.78L3.74,7.44z"/>
	<path class="st1" d="M4.77,7.46c0,0.55-0.39,0.29-0.72,0.29s-0.6-0.09-0.6-0.64s0.27-1.05,0.6-1.01C4.74,6.19,4.77,6.91,4.77,7.46z
		"/>
	<path class="st2" d="M7.1,6.05c0,0-0.06,0.01-0.1,0.05C6.8,6.29,6.22,6.88,5.83,7.08C5.36,7.33,5.39,7.45,5.39,7.45
		s0.69-0.36,0.74-0.36c0.05,0,0.74-0.36,0.95-0.73C7.28,6.01,7.1,6.05,7.1,6.05z"/>
	<g>
		<path class="st3" d="M7.89,2.53c0,0-0.09,0.02-0.22,0.02c-0.09,0-0.17-0.01-0.25-0.02C7.3,2.5,7.06,2.4,6.8,2.3
			C6.24,2.07,5.46,1.75,4.85,1.75c-0.03,0-0.05,0-0.08,0c-0.03,0-0.05,0-0.08,0l0,0c-0.6,0-1.38,0.32-1.95,0.55
			c-0.26,0.1-0.5,0.2-0.62,0.23C2.06,2.54,1.97,2.55,1.89,2.55c-0.13,0-0.22-0.02-0.22-0.02l-0.5-0.1l0.25,0.44
			c0.21,0.37,0.31,2.04,0.33,3v0.01V5.9C1.78,6.43,2.3,6.98,3.29,7.53c0.36,0.21,0.73,0.37,0.96,0.48C4.7,8.2,4.74,8.2,4.78,8.2
			s0.08,0,0.52-0.19c0.24-0.1,0.6-0.27,0.96-0.48c0.99-0.55,1.51-1.1,1.55-1.63V5.89V5.88c0.01-0.96,0.11-2.63,0.33-3L8.4,2.43
			L7.89,2.53z M7.41,2.97c0,0,0.01,0,0.01,0C7.43,2.97,7.42,2.97,7.41,2.97C7.42,2.97,7.42,2.97,7.41,2.97z M5.92,6.92
			C5.44,7.19,4.96,7.39,4.77,7.46C4.59,7.39,4.11,7.19,3.64,6.92C2.9,6.51,2.48,6.11,2.45,5.79c0-0.24-0.03-1.78-0.23-2.58
			c0.08,0,0.15-0.01,0.22-0.03C2.6,3.15,2.82,3.06,3.1,2.94c0.48-0.2,1.15-0.47,1.61-0.47c0.02,0,0.04,0,0.06,0h0.01h0.01
			c0.02,0,0.04,0,0.06,0c0.46,0,1.13,0.27,1.61,0.47c0.28,0.11,0.5,0.2,0.65,0.23C7.18,3.19,7.25,3.2,7.33,3.21
			C7.13,4.02,7.11,5.55,7.1,5.79C7.07,6.11,6.65,6.51,5.92,6.92z M7.03,6.39C6.99,6.43,6.95,6.48,6.91,6.52
			C6.95,6.48,6.99,6.43,7.03,6.39z M6.71,6.68C6.66,6.72,6.6,6.76,6.55,6.8C6.49,6.84,6.44,6.88,6.38,6.92
			C6.34,6.94,6.3,6.97,6.26,6.99C6.3,6.97,6.34,6.94,6.38,6.92C6.44,6.88,6.49,6.84,6.55,6.8C6.6,6.76,6.66,6.72,6.71,6.68z
			 M6.15,7.06C6.11,7.08,6.07,7.11,6.03,7.13C6.07,7.11,6.11,7.08,6.15,7.06z M5.79,7.26C5.73,7.29,5.68,7.31,5.62,7.34
			C5.68,7.31,5.73,7.28,5.79,7.26z M7.22,2.96c0.01,0,0.01,0,0.02,0C7.23,2.96,7.22,2.96,7.22,2.96z M7.29,2.97c0,0,0.01,0,0.01,0
			C7.29,2.97,7.29,2.97,7.29,2.97z M7.11,2.94c0.01,0,0.03,0.01,0.04,0.01C7.14,2.95,7.13,2.94,7.11,2.94z M6.48,2.7
			c0.02,0.01,0.04,0.02,0.06,0.03C6.53,2.72,6.5,2.71,6.48,2.7z M6.58,2.74C6.6,2.75,6.61,2.76,6.63,2.76
			C6.61,2.76,6.6,2.75,6.58,2.74z M6.66,2.78C6.67,2.78,6.68,2.79,6.7,2.79C6.68,2.79,6.67,2.78,6.66,2.78z M6.73,2.8
			c0.01,0,0.02,0.01,0.04,0.01C6.75,2.81,6.74,2.81,6.73,2.8z M6.8,2.83c0.01,0,0.02,0.01,0.03,0.01C6.82,2.84,6.81,2.84,6.8,2.83z
			 M6.86,2.85c0.01,0,0.02,0.01,0.03,0.01C6.88,2.86,6.87,2.86,6.86,2.85z M6.92,2.88c0.01,0,0.02,0.01,0.03,0.01
			C6.94,2.88,6.93,2.88,6.92,2.88z M6.97,2.9C6.98,2.9,6.99,2.9,7,2.91C6.99,2.9,6.98,2.9,6.97,2.9z M7.02,2.91
			c0.01,0,0.02,0.01,0.03,0.01C7.04,2.92,7.03,2.92,7.02,2.91z M4.85,2.24c0.01,0,0.02,0,0.03,0C4.87,2.24,4.86,2.24,4.85,2.24z
			 M4.92,2.24c0.01,0,0.02,0,0.03,0C4.94,2.25,4.93,2.24,4.92,2.24z M5,2.25c0.01,0,0.02,0,0.03,0C5.02,2.25,5.01,2.25,5,2.25z
			 M5.08,2.26c0.01,0,0.02,0,0.04,0.01C5.1,2.26,5.09,2.26,5.08,2.26z M5.16,2.27c0.01,0,0.03,0,0.04,0.01
			C5.18,2.27,5.17,2.27,5.16,2.27z M5.24,2.29c0.01,0,0.03,0.01,0.04,0.01C5.26,2.29,5.25,2.29,5.24,2.29z M5.32,2.3
			c0.01,0,0.03,0.01,0.04,0.01C5.35,2.31,5.34,2.31,5.32,2.3z M5.4,2.32c0.01,0,0.03,0.01,0.04,0.01C5.43,2.33,5.42,2.33,5.4,2.32z
			 M5.49,2.35c0.01,0,0.03,0.01,0.04,0.01C5.52,2.35,5.5,2.35,5.49,2.35z M5.58,2.37c0.01,0,0.03,0.01,0.04,0.01
			C5.6,2.38,5.59,2.37,5.58,2.37z M5.66,2.4c0.01,0,0.03,0.01,0.04,0.01C5.69,2.4,5.67,2.4,5.66,2.4z M5.75,2.42
			c0.01,0,0.03,0.01,0.04,0.01C5.77,2.43,5.76,2.43,5.75,2.42z M5.83,2.45c0.01,0,0.03,0.01,0.04,0.01
			C5.86,2.46,5.84,2.46,5.83,2.45z M5.92,2.48C5.93,2.49,5.94,2.49,5.96,2.5C5.94,2.49,5.93,2.49,5.92,2.48z M6,2.51
			c0.01,0.01,0.03,0.01,0.04,0.02C6.03,2.52,6.02,2.52,6,2.51z M6.09,2.54C6.1,2.55,6.11,2.55,6.13,2.56
			C6.11,2.56,6.1,2.55,6.09,2.54z M6.17,2.58c0.01,0.01,0.03,0.01,0.04,0.02C6.19,2.59,6.18,2.58,6.17,2.58z M6.25,2.61
			c0.01,0.01,0.03,0.01,0.04,0.02C6.28,2.62,6.26,2.61,6.25,2.61z M6.33,2.64c0.01,0.01,0.03,0.01,0.04,0.02
			C6.35,2.65,6.34,2.65,6.33,2.64z M6.41,2.67c0.01,0.01,0.03,0.01,0.04,0.02C6.43,2.68,6.42,2.68,6.41,2.67z M4.78,2.24L4.78,2.24
			L4.78,2.24L4.78,2.24z M3.11,2.69c0.01,0,0.02-0.01,0.03-0.01C3.13,2.68,3.12,2.68,3.11,2.69z M3.19,2.66
			c0.01,0,0.02-0.01,0.03-0.01C3.21,2.65,3.2,2.65,3.19,2.66z M3.27,2.62c0.01,0,0.02-0.01,0.04-0.01C3.29,2.61,3.28,2.62,3.27,2.62
			z M3.35,2.59c0.01-0.01,0.03-0.01,0.04-0.02C3.37,2.58,3.36,2.59,3.35,2.59z M3.43,2.56c0.01-0.01,0.03-0.01,0.04-0.02
			C3.45,2.55,3.44,2.56,3.43,2.56z M3.51,2.53c0.01-0.01,0.03-0.01,0.04-0.01C3.54,2.52,3.53,2.52,3.51,2.53z M3.6,2.5
			c0.01,0,0.03-0.01,0.04-0.01C3.62,2.49,3.61,2.49,3.6,2.5z M3.68,2.47c0.01,0,0.03-0.01,0.04-0.01C3.71,2.46,3.69,2.46,3.68,2.47z
			 M3.77,2.44c0.01,0,0.03-0.01,0.04-0.01C3.79,2.43,3.78,2.43,3.77,2.44z M3.85,2.41c0.01,0,0.03-0.01,0.04-0.01
			C3.88,2.4,3.87,2.4,3.85,2.41z M3.94,2.38c0.01,0,0.03-0.01,0.04-0.01C3.96,2.37,3.95,2.38,3.94,2.38z M4.02,2.36
			c0.01,0,0.03-0.01,0.04-0.01C4.05,2.35,4.04,2.35,4.02,2.36z M4.11,2.33c0.01,0,0.03-0.01,0.04-0.01
			C4.13,2.33,4.12,2.33,4.11,2.33z M4.19,2.31c0.01,0,0.03-0.01,0.04-0.01C4.22,2.31,4.2,2.31,4.19,2.31z M4.27,2.29
			c0.01,0,0.03-0.01,0.04-0.01C4.3,2.29,4.29,2.29,4.27,2.29z M4.36,2.28c0.01,0,0.03,0,0.04-0.01C4.38,2.27,4.37,2.27,4.36,2.28z
			 M4.44,2.26c0.01,0,0.02,0,0.04-0.01C4.46,2.26,4.45,2.26,4.44,2.26z M4.52,2.25c0.01,0,0.02,0,0.03,0
			C4.54,2.25,4.53,2.25,4.52,2.25z M4.6,2.25c0.01,0,0.02,0,0.03,0C4.62,2.24,4.61,2.25,4.6,2.25z M4.68,2.24c0.01,0,0.02,0,0.03,0
			C4.7,2.24,4.69,2.24,4.68,2.24z M2.46,2.94c0.01,0,0.02,0,0.03-0.01C2.48,2.93,2.47,2.93,2.46,2.94z M2.51,2.92
			c0.01,0,0.02-0.01,0.03-0.01C2.52,2.92,2.51,2.92,2.51,2.92z M2.56,2.91c0.01,0,0.02-0.01,0.03-0.01C2.57,2.9,2.57,2.9,2.56,2.91z
			 M2.61,2.89c0.01,0,0.02-0.01,0.03-0.01C2.63,2.88,2.62,2.88,2.61,2.89z M2.67,2.87c0.01,0,0.02-0.01,0.03-0.01
			C2.69,2.86,2.68,2.86,2.67,2.87z M2.73,2.84c0.01,0,0.02-0.01,0.03-0.01C2.75,2.84,2.74,2.84,2.73,2.84z M2.79,2.82
			c0.01,0,0.02-0.01,0.03-0.01C2.81,2.81,2.8,2.81,2.79,2.82z M2.86,2.79c0.01,0,0.02-0.01,0.03-0.01C2.88,2.78,2.87,2.78,2.86,2.79
			z M2.93,2.76c0.01,0,0.02-0.01,0.03-0.01C2.96,2.75,2.94,2.76,2.93,2.76z M3.03,2.72c0.01,0,0.02-0.01,0.03-0.01
			C3.05,2.71,3.04,2.72,3.03,2.72z M2.41,2.95c0.01,0,0.02-0.01,0.04-0.01C2.43,2.94,2.42,2.95,2.41,2.95z M2.26,2.97
			c0,0,0.01,0,0.01,0C2.27,2.97,2.26,2.97,2.26,2.97z M2.32,2.96c0.01,0,0.01,0,0.02,0C2.33,2.96,2.33,2.96,2.32,2.96z M1.89,2.95
			c0.08,0.14,0.14,0.4,0.18,0.72C2.09,3.76,2.1,3.86,2.11,3.96c-0.01-0.1-0.02-0.2-0.04-0.29C2.03,3.36,1.97,3.09,1.89,2.95
			L1.89,2.95z M1.9,2.96C1.9,2.96,1.9,2.96,1.9,2.96C1.9,2.96,1.9,2.96,1.9,2.96z M1.91,2.96C1.91,2.96,1.91,2.96,1.91,2.96
			C1.91,2.96,1.91,2.96,1.91,2.96z M1.93,2.96C1.93,2.96,1.93,2.96,1.93,2.96C1.93,2.96,1.93,2.96,1.93,2.96z M1.96,2.96
			C1.96,2.96,1.96,2.96,1.96,2.96C1.96,2.96,1.96,2.96,1.96,2.96z M1.99,2.97c0,0,0.01,0,0.01,0C2,2.97,1.99,2.97,1.99,2.97z
			 M2.03,2.97c0,0,0.01,0,0.01,0C2.04,2.97,2.03,2.97,2.03,2.97z M2.08,2.97C2.08,2.97,2.09,2.97,2.08,2.97
			C2.09,2.97,2.08,2.97,2.08,2.97z M2.12,6.28C2.1,6.25,2.09,6.22,2.07,6.19C2.09,6.22,2.1,6.25,2.12,6.28z M2.13,4.14
			c0.01,0.06,0.01,0.12,0.02,0.18c0,0.04,0.01,0.08,0.01,0.12c0.01,0.08,0.01,0.16,0.02,0.24c0,0.04,0,0.08,0.01,0.12
			c0-0.04,0-0.08-0.01-0.12C2.17,4.61,2.16,4.53,2.16,4.45c0-0.04-0.01-0.08-0.01-0.12C2.14,4.27,2.14,4.2,2.13,4.14
			c0-0.04-0.01-0.08-0.01-0.12C2.12,4.06,2.13,4.1,2.13,4.14z M2.13,2.97c0,0,0.01,0,0.01,0C2.14,2.97,2.14,2.97,2.13,2.97
			C2.13,2.97,2.13,2.97,2.13,2.97z M2.19,5.04c0-0.04,0-0.07-0.01-0.11C2.19,4.96,2.19,5,2.19,5.04z M2.19,2.97c0,0,0.01,0,0.01,0
			C2.2,2.97,2.19,2.97,2.19,2.97z M5.16,7.55C5.24,7.52,5.32,7.48,5.4,7.45c0.05-0.02,0.1-0.05,0.16-0.08
			C5.51,7.4,5.46,7.42,5.4,7.45C5.32,7.48,5.24,7.52,5.16,7.55c-0.23,0.1-0.39,0.16-0.39,0.16l0,0C4.77,7.71,4.93,7.66,5.16,7.55z
			 M6.95,6.79C6.95,6.8,6.95,6.8,6.95,6.79C6.95,6.8,6.95,6.8,6.95,6.79z M7.01,6.75C7.01,6.75,7,6.75,7.01,6.75
			C7,6.75,7.01,6.75,7.01,6.75z M7.12,6.65c0,0-0.01,0.01-0.01,0.01C7.11,6.66,7.11,6.65,7.12,6.65z M7.06,6.7
			C7.06,6.7,7.06,6.71,7.06,6.7C7.06,6.71,7.06,6.7,7.06,6.7z M7.21,6.17C7.19,6.2,7.17,6.23,7.14,6.26
			C7.17,6.23,7.19,6.2,7.21,6.17z M7.36,2.97c0,0,0.01,0,0.01,0C7.36,2.97,7.36,2.97,7.36,2.97z M7.43,6.29
			C7.41,6.32,7.39,6.35,7.37,6.38C7.39,6.35,7.41,6.32,7.43,6.29z M7.47,2.97C7.47,2.97,7.47,2.97,7.47,2.97
			C7.47,2.97,7.47,2.97,7.47,2.97z M7.52,2.97c0,0,0.01,0,0.01,0C7.52,2.97,7.52,2.97,7.52,2.97z M7.58,3.18
			C7.57,3.22,7.56,3.27,7.55,3.31C7.56,3.27,7.57,3.22,7.58,3.18z M7.56,2.97c0,0,0.01,0,0.01,0C7.56,2.97,7.56,2.97,7.56,2.97z
			 M7.59,2.96C7.59,2.96,7.6,2.96,7.59,2.96C7.6,2.96,7.59,2.96,7.59,2.96z M7.67,2.95L7.67,2.95C7.65,2.99,7.63,3.03,7.61,3.07
			C7.63,3.03,7.65,2.99,7.67,2.95z M7.62,2.96C7.63,2.96,7.63,2.96,7.62,2.96C7.63,2.96,7.63,2.96,7.62,2.96z M7.65,2.96
			C7.65,2.96,7.65,2.96,7.65,2.96C7.65,2.96,7.65,2.96,7.65,2.96z M7.66,2.96C7.66,2.96,7.66,2.96,7.66,2.96
			C7.66,2.96,7.66,2.96,7.66,2.96z M7.89,2.77c-0.01,0-0.02,0-0.03,0C7.87,2.77,7.88,2.77,7.89,2.77z M7.86,2.78
			c-0.01,0-0.02,0-0.03,0C7.84,2.78,7.85,2.78,7.86,2.78z M7.82,2.78c-0.01,0-0.02,0-0.03,0C7.8,2.78,7.81,2.78,7.82,2.78z
			 M7.77,2.78c-0.02,0-0.03,0-0.05,0C7.74,2.78,7.76,2.78,7.77,2.78z M7.72,2.78c-0.02,0-0.03,0-0.05,0
			C7.69,2.79,7.71,2.79,7.72,2.78z M7.45,2.77c-0.02,0-0.05-0.01-0.07-0.01C7.4,2.76,7.42,2.77,7.45,2.77z M7.66,2.79
			c-0.02,0-0.03,0-0.05,0C7.63,2.79,7.65,2.79,7.66,2.79z M7.6,2.78c-0.02,0-0.04,0-0.06,0C7.56,2.78,7.58,2.78,7.6,2.78z
			 M7.52,2.78c-0.02,0-0.04,0-0.06-0.01C7.48,2.77,7.5,2.78,7.52,2.78z M7.15,2.69c0.01,0,0.02,0.01,0.03,0.01
			C7.17,2.7,7.16,2.69,7.15,2.69z M7.21,2.71c0.01,0,0.02,0.01,0.02,0.01C7.23,2.72,7.22,2.71,7.21,2.71z M7.27,2.73
			c0.01,0,0.01,0,0.02,0.01C7.28,2.73,7.27,2.73,7.27,2.73z M7.32,2.74c0.01,0,0.01,0,0.02,0C7.33,2.75,7.32,2.75,7.32,2.74z
			 M6.91,2.6c-0.01,0-0.02-0.01-0.03-0.01C6.89,2.59,6.9,2.59,6.91,2.6z M6.75,2.53c-0.01,0-0.01-0.01-0.02-0.01
			C6.74,2.53,6.75,2.53,6.75,2.53z M6.64,2.49c-0.01,0-0.02-0.01-0.03-0.01C6.62,2.48,6.63,2.48,6.64,2.49z M6.56,2.45
			C6.54,2.45,6.53,2.44,6.52,2.44C6.53,2.44,6.54,2.45,6.56,2.45z M6.47,2.42C6.46,2.41,6.45,2.41,6.43,2.4
			C6.45,2.41,6.46,2.41,6.47,2.42z M6.39,2.39C6.37,2.38,6.36,2.37,6.34,2.37C6.36,2.37,6.37,2.38,6.39,2.39z M6.3,2.35
			C6.28,2.34,6.27,2.34,6.25,2.33C6.27,2.34,6.28,2.34,6.3,2.35z M6.21,2.32C6.19,2.31,6.18,2.3,6.16,2.3
			C6.18,2.3,6.19,2.31,6.21,2.32z M6.11,2.28C6.1,2.27,6.09,2.27,6.07,2.26C6.09,2.27,6.1,2.27,6.11,2.28z M6.02,2.25
			C6.01,2.24,5.99,2.24,5.98,2.23C5.99,2.24,6.01,2.24,6.02,2.25z M5.93,2.21C5.91,2.21,5.9,2.2,5.88,2.2
			C5.9,2.2,5.91,2.21,5.93,2.21z M5.84,2.18C5.82,2.18,5.81,2.17,5.79,2.17C5.8,2.17,5.82,2.18,5.84,2.18z M5.74,2.15
			c-0.02,0-0.03-0.01-0.05-0.01C5.71,2.14,5.73,2.15,5.74,2.15z M5.56,2.1c-0.02,0-0.03-0.01-0.05-0.01
			C5.53,2.09,5.54,2.09,5.56,2.1z M5.46,2.07c-0.02,0-0.03-0.01-0.05-0.01C5.43,2.07,5.45,2.07,5.46,2.07z M5.37,2.05
			c-0.02,0-0.03-0.01-0.05-0.01C5.34,2.04,5.36,2.05,5.37,2.05z M5.28,2.03c-0.02,0-0.03-0.01-0.05-0.01
			C5.25,2.03,5.27,2.03,5.28,2.03z M5.19,2.01c-0.02,0-0.03,0-0.05-0.01C5.16,2.01,5.18,2.01,5.19,2.01z M5.1,2
			C5.09,2,5.07,2,5.06,2C5.07,2,5.09,2,5.1,2z M5.02,1.99c-0.02,0-0.03,0-0.05,0C4.99,1.99,5,1.99,5.02,1.99z M4.94,1.99
			c-0.02,0-0.03,0-0.05,0C4.9,1.99,4.92,1.99,4.94,1.99z M4.85,1.98c-0.03,0-0.05,0-0.08,0C4.8,1.98,4.83,1.98,4.85,1.98L4.85,1.98z
			 M4.7,1.98c0.03,0,0.05,0,0.08,0l0,0C4.75,1.98,4.72,1.98,4.7,1.98C4.7,1.98,4.7,1.98,4.7,1.98z M2.77,2.55
			C2.75,2.55,2.73,2.56,2.71,2.57C2.73,2.56,2.75,2.55,2.77,2.55z M4.67,1.99c-0.02,0-0.03,0-0.05,0C4.63,1.99,4.65,1.99,4.67,1.99z
			 M4.58,1.99c-0.02,0-0.03,0-0.05,0C4.55,1.99,4.57,1.99,4.58,1.99z M4.5,2C4.48,2,4.46,2,4.45,2C4.46,2,4.48,2,4.5,2z M4.41,2.01
			c-0.02,0-0.03,0.01-0.05,0.01C4.38,2.01,4.39,2.01,4.41,2.01z M4.32,2.02c-0.02,0-0.03,0.01-0.05,0.01
			C4.29,2.03,4.3,2.02,4.32,2.02z M4.23,2.04c-0.02,0-0.03,0.01-0.05,0.01C4.2,2.05,4.21,2.04,4.23,2.04z M4.14,2.06
			c-0.02,0-0.04,0.01-0.05,0.01C4.1,2.07,4.12,2.07,4.14,2.06z M4.05,2.08c-0.02,0-0.04,0.01-0.05,0.01
			C4.01,2.09,4.03,2.09,4.05,2.08z M3.95,2.11C3.94,2.11,3.92,2.12,3.9,2.12C3.92,2.12,3.94,2.11,3.95,2.11z M3.86,2.14
			C3.84,2.14,3.82,2.15,3.81,2.15C3.82,2.15,3.84,2.14,3.86,2.14z M3.77,2.17C3.75,2.17,3.73,2.18,3.71,2.18
			C3.73,2.18,3.75,2.17,3.77,2.17z M3.68,2.2C3.66,2.2,3.64,2.21,3.62,2.22C3.64,2.21,3.66,2.2,3.68,2.2z M3.58,2.23
			C3.56,2.24,3.54,2.24,3.53,2.25C3.54,2.24,3.56,2.24,3.58,2.23z M3.49,2.26C3.47,2.27,3.45,2.28,3.43,2.28
			C3.45,2.28,3.47,2.27,3.49,2.26z M3.4,2.3C3.38,2.3,3.36,2.31,3.34,2.32C3.36,2.31,3.38,2.3,3.4,2.3z M3.31,2.33
			C3.29,2.34,3.27,2.35,3.25,2.35C3.27,2.35,3.29,2.34,3.31,2.33z M3.22,2.37C3.2,2.37,3.18,2.38,3.16,2.39
			C3.18,2.38,3.2,2.37,3.22,2.37z M3.13,2.4C3.11,2.41,3.09,2.42,3.07,2.43C3.09,2.42,3.11,2.41,3.13,2.4z M3.04,2.43
			C3.02,2.44,3,2.45,2.98,2.46C3,2.45,3.02,2.44,3.04,2.43z M2.96,2.47C2.9,2.49,2.84,2.52,2.79,2.54C2.84,2.52,2.9,2.49,2.96,2.47z
			 M2.38,2.7c0.01,0,0.02-0.01,0.03-0.01C2.4,2.69,2.39,2.7,2.38,2.7z M2.44,2.68c0.01,0,0.02-0.01,0.03-0.01
			C2.46,2.67,2.45,2.67,2.44,2.68z M2.5,2.65c0.01,0,0.02-0.01,0.03-0.01C2.52,2.65,2.51,2.65,2.5,2.65z M2.57,2.63
			c0.01-0.01,0.03-0.01,0.04-0.02C2.59,2.62,2.58,2.62,2.57,2.63z M2.64,2.6c0.01-0.01,0.03-0.01,0.04-0.02
			C2.67,2.59,2.65,2.59,2.64,2.6z M2.18,2.76c-0.02,0-0.05,0.01-0.07,0.01C2.13,2.77,2.16,2.76,2.18,2.76z M2.35,2.71
			c-0.01,0-0.02,0.01-0.03,0.01C2.33,2.72,2.34,2.71,2.35,2.71z M2.29,2.73c-0.01,0-0.01,0-0.02,0.01C2.28,2.73,2.28,2.73,2.29,2.73
			z M2.24,2.74c-0.01,0-0.01,0-0.02,0C2.23,2.75,2.23,2.75,2.24,2.74z M1.9,2.79c0.02,0,0.03,0,0.05,0C1.93,2.79,1.91,2.79,1.9,2.79
			z M1.96,2.78c0.02,0,0.04,0,0.06,0C2,2.78,1.98,2.78,1.96,2.78z M2.04,2.78c0.02,0,0.04,0,0.06-0.01
			C2.07,2.77,2.05,2.78,2.04,2.78z M1.69,2.77c-0.01,0-0.02,0-0.03,0C1.67,2.77,1.68,2.77,1.69,2.77z M1.88,2.79
			c-0.02,0-0.03,0-0.05,0C1.85,2.79,1.86,2.79,1.88,2.79z M1.83,2.78c-0.02,0-0.03,0-0.05,0C1.8,2.78,1.81,2.78,1.83,2.78z
			 M1.77,2.78c-0.01,0-0.02,0-0.03,0C1.75,2.78,1.76,2.78,1.77,2.78z M1.73,2.78c-0.01,0-0.02,0-0.03,0
			C1.71,2.78,1.72,2.78,1.73,2.78z M1.62,2.77C1.62,2.77,1.62,2.76,1.62,2.77C1.62,2.76,1.62,2.76,1.62,2.77z M1.66,2.77
			c-0.01,0-0.01,0-0.02,0C1.65,2.77,1.65,2.77,1.66,2.77z M1.64,2.77C1.63,2.77,1.63,2.77,1.64,2.77C1.63,2.77,1.63,2.77,1.64,2.77z
			 M1.81,3.49C1.81,3.45,1.8,3.41,1.79,3.37C1.77,3.26,1.75,3.15,1.73,3.06c0.02,0.09,0.05,0.2,0.07,0.31
			C1.8,3.41,1.81,3.45,1.81,3.49c0.02,0.12,0.03,0.25,0.05,0.38C1.85,3.74,1.83,3.61,1.81,3.49z M1.96,5.22
			C1.95,5.07,1.94,4.9,1.93,4.73C1.92,4.47,1.9,4.2,1.87,3.93C1.9,4.2,1.92,4.47,1.93,4.73C1.94,4.9,1.95,5.07,1.96,5.22
			c0.02,0.39,0.02,0.66,0.02,0.66c0,0.02,0,0.03,0.01,0.05c0-0.02,0-0.03-0.01-0.05C1.98,5.88,1.97,5.61,1.96,5.22z M2.07,6.18
			C2.06,6.17,2.05,6.15,2.05,6.14C2.05,6.15,2.06,6.17,2.07,6.18z M2.04,6.13C2.04,6.12,2.03,6.1,2.02,6.08
			C2.03,6.1,2.04,6.12,2.04,6.13z M2.02,6.08C2.01,6.05,2,6.02,1.99,5.99C2,6.02,2.01,6.05,2.02,6.08z M1.99,5.98
			c0-0.01-0.01-0.03-0.01-0.04C1.99,5.95,1.99,5.97,1.99,5.98z M4.78,7.97c0,0-2.08-0.77-2.66-1.69C2.7,7.2,4.78,7.97,4.78,7.97
			L4.78,7.97L4.78,7.97z M7.15,6.62C7.16,6.61,7.16,6.61,7.17,6.6C7.17,6.61,7.16,6.61,7.15,6.62z M7.22,6.55
			C7.21,6.56,7.21,6.56,7.2,6.57C7.21,6.56,7.21,6.56,7.22,6.55z M7.33,6.43C7.34,6.42,7.34,6.41,7.35,6.4
			C7.34,6.41,7.34,6.42,7.33,6.43z M7.25,6.52C7.25,6.51,7.26,6.51,7.26,6.5C7.26,6.51,7.25,6.51,7.25,6.52z M7.29,6.47
			C7.3,6.47,7.3,6.46,7.31,6.45C7.3,6.46,7.3,6.47,7.29,6.47z M7.76,3.37C7.74,3.53,7.71,3.69,7.69,3.87
			C7.66,4.15,7.64,4.45,7.62,4.73C7.59,5.36,7.58,5.88,7.58,5.88c-0.01,0.14-0.06,0.27-0.15,0.4c0.08-0.13,0.13-0.27,0.15-0.4
			c0,0,0.01-0.52,0.04-1.15c0.02-0.28,0.04-0.58,0.07-0.86C7.71,3.69,7.74,3.53,7.76,3.37c0.02-0.11,0.04-0.22,0.07-0.31
			C7.81,3.15,7.78,3.26,7.76,3.37z M7.84,3.02c0.01-0.03,0.02-0.06,0.03-0.08C7.86,2.96,7.85,2.99,7.84,3.02z M7.93,2.77
			C7.94,2.77,7.94,2.76,7.93,2.77C7.94,2.76,7.94,2.76,7.93,2.77z M7.9,2.77c0.01,0,0.01,0,0.02,0C7.91,2.77,7.91,2.77,7.9,2.77z
			 M7.92,2.77C7.93,2.77,7.93,2.77,7.92,2.77C7.93,2.77,7.93,2.77,7.92,2.77z"/>
		<path class="st1" d="M4.73,4.19c0,0,0.11-0.39,0.17-0.48c0.05-0.09-0.01-0.18-0.04-0.29C4.82,3.3,4.72,2.69,4.7,2.57
			C4.7,2.44,4.61,2.12,4.53,2.11S4.15,2.36,4.15,2.36L3.71,3.2c0,0-0.02-0.01-0.07-0.02C3.58,3.17,3.49,3.15,3.36,3.16c0,0,0,0,0,0
			s0,0,0,0C3.23,3.15,3.14,3.17,3.08,3.19C3.03,3.19,3.01,3.2,3.01,3.2L2.57,2.36c0,0-0.29-0.26-0.38-0.25
			C2.11,2.12,2.02,2.44,2.01,2.57C2,2.69,1.9,3.3,1.87,3.42c-0.03,0.11-0.09,0.2-0.04,0.29C1.88,3.8,1.99,4.19,1.99,4.19
			s0.02,0.32,0.05,0.36C2.08,4.6,1.88,4.65,1.87,4.97c-0.01,0.32-0.03,0.57,0.02,0.7c0.05,0.12,0.05,0.12,0.05,0.12l0.07-0.05
			c0,0,0.2,0.48,0.46,0.89l0.08,0.01l1.03,0.69l0,0.03c0.11-0.09,0.26-0.22,0.43-0.41c0.38-0.43,0.7-1.22,0.7-1.22l0.07,0.05
			c0,0,0,0,0.05-0.12c0.05-0.12,0.03-0.37,0.02-0.7C4.84,4.65,4.64,4.6,4.67,4.56C4.71,4.51,4.73,4.19,4.73,4.19z"/>
		<g>
			<path class="st1" d="M8.46,4.95c-0.03-0.06-0.52-0.39-0.55-0.4l0,0l0,0C7.92,4.5,7.93,4.47,7.94,4.43c0.01-0.21,0-0.41-0.22-0.53
				l0,0C7.7,3.88,7.68,3.87,7.66,3.85l0,0c-0.01,0-0.02-0.01-0.03-0.01c0-0.15,0.01-0.29-0.03-0.43C7.56,3.23,7.83,2.72,7.8,2.69
				C7.77,2.65,7.44,2.94,7.41,3.01l0,0l0,0C7.39,3.05,7.37,3.1,7.36,3.14C7.34,3.2,7.33,3.25,7.31,3.31l0,0l0,0
				C7.29,3.33,7.28,3.35,7.26,3.38C7.19,3.45,7.14,3.52,7.13,3.62l0,0C7.05,3.66,6.98,3.65,6.9,3.65C6.73,3.67,6.56,3.64,6.4,3.72
				C6.33,3.75,6.29,3.73,6.24,3.68C6.12,3.57,5.86,3.2,5.77,3.14C5.63,3.01,5.24,2.73,5.06,2.67C5.01,2.64,4.94,2.62,4.89,2.67
				C4.84,2.74,4.91,2.78,4.94,2.83c0.09,0.1,0.18,0.19,0.24,0.31c0.04,0.09,0.05,0.2,0.12,0.28c-0.02,0.1-0.02,0.26-0.02,0.3
				c0,0.06-0.01,0.16-0.01,0.26C5.24,4,5.23,4.04,5.22,4.09c-0.11,0.27,0,0.52,0.21,0.68c0.11,0.09,0.12,0.17,0.06,0.29
				C5.43,5.17,5.36,5.28,5.34,5.41C5.19,5.83,5.3,6.21,5.56,6.56C5.59,6.6,6.22,6.96,6.39,6.97c0.25,0.02,0.73-0.39,0.8-0.43
				c0.15-0.09,0.08-0.46,0.1-0.5l0,0l0,0C7.3,5.92,7.42,5.87,7.48,5.78l0,0c0.14,0,0.28-0.01,0.43-0.01c0.09-0.03,0.2,0,0.24-0.09
				l0.04-0.04C8.38,5.6,8.43,5.49,8.4,5.28C8.44,5.17,8.57,5.08,8.46,4.95z M7.75,2.76L7.75,2.76L7.75,2.76L7.75,2.76z M7.75,2.76
				C7.75,2.76,7.75,2.76,7.75,2.76C7.75,2.76,7.75,2.76,7.75,2.76C7.75,2.76,7.75,2.76,7.75,2.76z M6.73,4.24L6.73,4.24L6.73,4.24
				L6.73,4.24L6.73,4.24L6.73,4.24z M6.74,4.05L6.74,4.05L6.74,4.05L6.74,4.05z M7.82,5.25L7.82,5.25L7.82,5.25
				C7.81,5.25,7.81,5.25,7.82,5.25C7.81,5.25,7.81,5.25,7.82,5.25C7.82,5.25,7.82,5.25,7.82,5.25z M5.9,3.99
				C5.9,3.99,5.9,3.99,5.9,3.99C5.9,3.99,5.9,3.99,5.9,3.99C5.9,3.99,5.9,3.99,5.9,3.99z"/>
			<path class="st4" d="M7.58,4.23c0,0.05,0.17,0.11,0.17,0.11L7.71,4.37c0,0-0.22-0.12-0.2-0.2c0.02-0.08,0.1-0.18,0.14-0.19
				C7.69,3.98,7.77,4,7.72,4.06C7.67,4.11,7.59,4.1,7.58,4.23z"/>
			<path class="st4" d="M7.56,4.25c0,0,0.03-0.16,0.11-0.16S7.8,4.15,7.8,4.15s0.1,0.01,0.01,0.1C7.71,4.34,7.56,4.25,7.56,4.25z"/>
			<path class="st5" d="M6.41,4.35c0,0,0.14-0.12,0.2-0.12c0.06-0.01,0.13-0.03,0.18,0c0.05,0.03,0.14,0.15,0.14,0.15
				S6.9,4.41,6.76,4.42C6.63,4.43,6.41,4.35,6.41,4.35z"/>
			<ellipse class="st6" cx="6.65" cy="4.33" rx="0.06" ry="0.05"/>
			<ellipse class="st6" cx="7.65" cy="4.18" rx="0.06" ry="0.05"/>
			<path class="st7" d="M7.58,4.03c0,0,0.01-0.08,0.08-0.09c0.08-0.01,0.1-0.01,0.1-0.01S7.71,3.82,7.62,3.86
				C7.53,3.91,7.5,3.95,7.52,3.98C7.54,4.02,7.58,4.03,7.58,4.03z"/>
			<path class="st7" d="M7.05,4.05c0,0,0-0.12-0.17-0.11c-0.17,0.01-0.2,0.09-0.2,0.09l0.27,0.03L7.05,4.05z"/>
			<path class="st7" d="M5.65,4.08c0,0,0.09,0.05,0.1,0C5.77,4.03,5.67,3.76,5.7,3.61c0.03-0.16,0-0.34-0.13-0.28
				C5.44,3.39,5.49,3.57,5.49,3.67S5.44,3.95,5.41,4.04C5.38,4.13,5.39,4.39,5.53,4.4s0.26-0.05,0.24-0.15
				c-0.01-0.1-0.12,0-0.15-0.11C5.6,4.03,5.6,4.05,5.65,4.08z"/>
			<path class="st7" d="M7.37,4.48c0.04,0.03,0.38,0.23,0.38,0.23s0-0.08,0.11-0.05c0.11,0.03,0.13,0.09,0.12,0.1
				c0,0.01-0.03,0.03-0.06,0.04C7.9,4.81,7.88,4.81,7.89,4.82C7.9,4.87,8.06,4.81,8.06,4.81s0.17,0.03,0.18-0.02
				c0.02-0.07-0.58-0.43-0.58-0.43S7.56,4.3,7.61,4.4s0.08,0.1,0.05,0.13C7.62,4.57,7.38,4.25,7.29,4.31
				C7.25,4.34,7.32,4.45,7.37,4.48z"/>
			<path class="st7" d="M8.13,5.58c0,0-0.31,0.09-0.43,0.1c-0.12,0.01-0.49,0-0.53,0c-0.04,0-0.27,0.03-0.29,0.03
				C6.81,5.68,6.82,5.68,6.77,5.64C6.68,5.57,6.78,5.38,6.8,5.48c0.03,0.1,0.6,0.13,0.76,0.13s0.16-0.32,0.16-0.32L7.86,5.3
				c0,0,0.03-0.05-0.05-0.1C7.74,5.15,7.61,4.98,7.61,4.98s-0.02-0.05,0-0.14c0.02-0.09-0.23-0.1-0.3-0.13
				C7.24,4.69,7.27,5.18,7.27,5.18s0.05,0.04-0.05,0.04c-0.1,0-0.11-0.11-0.18-0.22C6.98,4.88,6.74,4.92,6.67,4.95
				c-0.14,0.07-0.19,0.29-0.23,0.3C6.36,5.27,6.37,4.79,6.16,4.73C6.03,4.69,6.03,4.77,6.1,5.04c0.07,0.29,0.32,0.52,0.35,0.59
				C6.48,5.7,6.42,6.01,6.42,6.01L6.28,5.75c0,0-0.2-0.39-0.21-0.16C6.07,5.81,6.42,6.26,6.42,6.26S6.36,6.44,6.47,6.44
				c0.11,0,0.29-0.12,0.45-0.24c0.16-0.12,0.02-0.13-0.05-0.05C6.79,6.23,6.64,6.32,6.56,6.3C6.51,6.28,6.52,6.25,6.67,6.13
				c0.1-0.08,0.14-0.24,0.14-0.36c0.02,0.03,0.03,0.05,0.03,0.05s0.2,0.03,0.22,0.02c0.02,0,0.41-0.01,0.41-0.01l0.15-0.07
				c0,0,0.19-0.01,0.22-0.01s0.1,0.08,0.15,0.05c0.05-0.04,0.17-0.12,0.17-0.12l0.03-0.15L8.13,5.58z"/>
			<path class="st4" d="M6.39,4.12c0,0,0.25-0.07,0.28-0.06s0.11-0.11,0.03-0.1C6.61,3.98,6.44,3.95,6.4,4.03S6.34,4.1,6.35,4.12
				C6.35,4.13,6.39,4.12,6.39,4.12z"/>
			<path class="st4" d="M6.88,4.57C6.87,4.57,6.87,4.57,6.88,4.57H6.83c-0.19,0-0.27-0.01-0.29-0.03c0,0,0.24,0.03,0.38-0.01
				c0.1-0.03,0.12-0.11,0.12-0.15C7.05,4.34,7,4.26,6.88,4.22C6.76,4.17,6.61,4.16,6.61,4.16c-0.01,0-0.02-0.01-0.02-0.02
				c0-0.01,0.01-0.02,0.02-0.02c0,0,0.09,0,0.16-0.03c0.07-0.03,0.15-0.01,0.18,0c0.01,0,0.01,0,0.01,0c0.02,0,0.07,0.05,0.1,0.09
				c0,0.01,0.06,0.1,0.05,0.2C7.09,4.49,7.06,4.57,6.88,4.57z"/>
			<path class="st8" d="M6.7,4.81c0,0-0.32-0.41-0.51-0.41C6,4.4,6,4.4,6,4.4S6.12,4.11,6.08,4.1S5.93,4.33,5.92,4.36
				C5.91,4.38,5.86,4.49,5.86,4.49S5.77,4.46,5.75,4.53c-0.01,0.07,0.5-0.16,0.63,0.1c0.13,0.25,0.17,0.26,0.17,0.26L6.7,4.81z"/>
			<path class="st1" d="M8.49,5.29c-0.06-0.03-0.11,0-0.16,0.01C8.2,5.35,8.07,5.35,7.94,5.3c-0.01,0-0.02,0-0.03,0
				C7.9,5.31,7.89,5.31,7.87,5.32c-0.1-0.02-0.15,0.01-0.15,0.13c0,0.12-0.09,0.19-0.19,0.2C7.31,5.67,7.08,5.68,6.87,5.57
				C6.85,5.56,6.8,5.49,6.76,5.56C6.73,5.61,6.82,5.68,6.82,5.68c0.11,0.05,0.23,0.06,0.35,0.06C7.28,5.72,7.39,5.74,7.5,5.73
				c0.09-0.01,0.18,0,0.27-0.03c0.12-0.02,0.22-0.08,0.34-0.07c0.03,0.01,0.07,0.02,0.11,0.01C8.41,5.6,8.52,5.5,8.49,5.29z"/>
			<path class="st9" d="M7.88,5.44c0,0-0.21-0.22-0.2-0.36s0.19-0.23,0.51-0.21c0.42,0.03,0.44,0.26,0.44,0.26S8.57,5.31,8.45,5.41
				C8.33,5.51,8.2,5.49,8.09,5.5C7.98,5.5,7.88,5.44,7.88,5.44z"/>
			<path class="st10" d="M7.46,5.84c0,0-0.19,0-0.48-0.01c-0.31-0.01-0.32-0.19-0.3-0.19c0.02,0,0.06,0.11,0.31,0.12
				c0.27,0.01,0.45-0.01,0.48-0.01C7.51,5.75,7.7,5.73,7.74,5.73c0.03,0,0.2,0.01,0.23,0.01c0.08-0.03,0.19-0.08,0.21-0.12
				C8.19,5.6,8.18,5.57,8.17,5.56C8.15,5.54,8.12,5.54,8.09,5.55C8.07,5.55,8.05,5.56,8.02,5.57c-0.1,0.04-0.27,0.11-0.58,0.12
				C7.19,5.7,6.82,5.7,6.77,5.58c-0.01-0.02,0-0.04,0.02-0.04c0.02-0.01,0.04,0,0.04,0.02c0.03,0.05,0.26,0.1,0.68,0.1
				C7.8,5.64,7.89,5.55,8,5.51C8.02,5.5,8.05,5.49,8.07,5.48c0.06-0.02,0.12-0.01,0.15,0.03C8.25,5.55,8.26,5.6,8.24,5.64
				C8.21,5.73,8.02,5.79,7.98,5.8c0,0-0.01,0-0.01,0c0,0-0.2-0.01-0.23-0.01C7.71,5.8,7.56,5.82,7.46,5.84
				C7.47,5.84,7.46,5.84,7.46,5.84z"/>
			<path class="st11" d="M6.67,5.7c0,0,0.13,0.24,0.03,0.38s-0.35,0.39-0.33,0.4C6.39,6.48,6.8,6.31,6.85,6.16s0.06,0.16-0.18,0.26
				c-0.24,0.1-0.33,0.18-0.33,0.18s0.17,0.07,0.37-0.03c0.2-0.09,0.47-0.34,0.58-0.48c0.1-0.14,0.22-0.28,0.22-0.28
				s-0.32,0-0.54-0.01C6.84,5.8,6.67,5.7,6.67,5.7z"/>
			<path class="st12" d="M7.84,5.36c0.04,0,0.37-0.05,0.41-0.1c0.04-0.05,0.1,0.08,0.1,0.08s-0.1,0.11-0.27,0.11
				C7.91,5.45,7.84,5.36,7.84,5.36z"/>
			
				<ellipse transform="matrix(0.9921 -0.1254 0.1254 0.9921 -0.5773 1.0487)" class="st6" cx="8.04" cy="5.11" rx="0.18" ry="0.05"/>
		</g>
		<g>
			<path class="st7" d="M4.14,3.89c0,0-0.03,0.01-0.05,0.01c-0.02,0-0.07-0.08-0.12-0.05C3.92,3.87,3.79,4.04,3.79,4.04L3.51,3.96
				L3.43,3.97L3.34,3.95L3.08,3.96c0,0-0.19-0.07-0.2-0.07c-0.01,0-0.11-0.05-0.19-0.01C2.61,3.93,2.61,3.94,2.61,3.94
				s0.07,0.04,0.07,0.08s0.1,0.07,0.13,0.07c0.03,0-0.03-0.02-0.09,0.08c-0.07,0.1-0.2,0.69-0.19,0.74
				c0.01,0.05-0.07-0.08-0.07-0.08S2.28,5.04,2.37,5.63S2.6,6.43,2.6,6.43S2.18,6.02,2.12,5.71C2.05,5.4,2.04,5.56,2.04,5.56
				S1.96,5.43,2.01,5.25s0.21-0.48,0.21-0.48L2.16,4.22l0.32-0.69c0,0,0.09-0.25,0-0.46s-0.21-0.5-0.21-0.5L2.09,2.84L2.21,2.3
				l0.31,0.2l0.49,0.96c0,0,0.16-0.09,0.46-0.08c0.3,0.01,0.46,0.15,0.46,0.15l0.2,0.23C4.14,3.75,4.14,3.9,4.14,3.89z"/>
			<g>
				<path class="st1" d="M3.97,4.16c0.04-0.03,0.22-0.24,0.22-0.24S4.06,3.84,3.97,3.83c-0.06,0-0.08,0-0.08,0S3.79,3.91,3.69,3.91
					c-0.18,0-0.21-0.17-0.21-0.17s-0.03,0.1-0.12,0.1l0,0v0.15c0.12,0,0.23,0.03,0.34,0.17C3.82,4.31,4.1,4.73,4.1,4.73L4.18,4.7
					c0,0-0.28-0.46-0.32-0.51C3.81,4.14,3.92,4.19,3.97,4.16z"/>
				<path class="st1" d="M3.25,3.74c0,0-0.03,0.17-0.21,0.17c-0.1,0-0.21-0.08-0.21-0.08s-0.02,0-0.08,0
					c-0.08,0-0.21,0.08-0.21,0.08s0.17,0.21,0.22,0.24C2.8,4.19,2.91,4.14,2.87,4.19C2.83,4.24,2.63,4.73,2.63,4.73
					s0.28-0.41,0.39-0.57c0.11-0.14,0.22-0.17,0.34-0.17V3.84l0,0C3.28,3.84,3.25,3.74,3.25,3.74z"/>
			</g>
			<path class="st6" d="M3.74,4c0,0.01,0.08,0.05,0.16,0.05S4,3.99,4,3.99s0-0.07-0.09-0.06C3.82,3.94,3.84,3.96,3.8,3.97
				C3.76,3.98,3.74,3.98,3.74,4z"/>
			<path class="st6" d="M2.99,4c0,0.01-0.08,0.05-0.16,0.05s-0.1-0.07-0.1-0.07s0-0.07,0.09-0.06c0.1,0.01,0.08,0.03,0.11,0.04
				C2.97,3.98,3,3.98,2.99,4z"/>
			<path class="st6" d="M3.59,4.61H3.11L3.1,4.67l0.02,0.04c0,0,0.09,0,0.13,0.03c0.03,0.03,0.07,0.09,0.07,0.09h0.07
				c0,0,0.03-0.06,0.07-0.09C3.5,4.7,3.59,4.71,3.59,4.71l0.02-0.04L3.59,4.61z"/>
			<path class="st7" d="M3.98,4.72c0,0-0.27-0.36-0.33-0.48C3.6,4.13,3.45,4.1,3.37,4.1c-0.01,0-0.01,0-0.02,0
				c-0.01,0-0.01,0-0.02,0c-0.08,0-0.23,0.03-0.29,0.14C2.99,4.36,2.72,4.72,2.72,4.72L2.7,5.06c0,0,0.13,0.23,0.21,0.23L3.22,5.1
				c0,0,0.07-0.09,0.07-0.16c0-0.04-0.26-0.25-0.26-0.25l0.06-0.13h0.53l0.06,0.13c0,0-0.26,0.2-0.26,0.25
				c0,0.08,0.07,0.16,0.07,0.16l0.31,0.19C3.87,5.3,4,5.06,4,5.06L3.98,4.72z"/>
		</g>
		<path class="st3" d="M4.78,7.97L4.78,7.97L4.78,7.97c0,0-1.85-0.68-2.54-1.53C2.93,7.29,4.78,7.98,4.78,7.97
			C4.78,7.97,4.78,7.97,4.78,7.97C4.78,7.97,4.78,7.97,4.78,7.97z"/>
	</g>
	<g>
		<g>
			<path class="st1" d="M3.57,1.11c0.07-0.03,0.1-0.04,0.16-0.06C3.75,1.09,3.76,1.1,3.77,1.14C3.71,1.16,3.68,1.18,3.61,1.2
				c0.03,0.08,0.05,0.11,0.08,0.19C3.76,1.36,3.8,1.34,3.88,1.32c0.01,0.04,0.02,0.06,0.03,0.09C3.79,1.45,3.73,1.47,3.62,1.52
				C3.51,1.27,3.45,1.15,3.34,0.9c0.14-0.06,0.21-0.09,0.35-0.14C3.7,0.8,3.71,0.81,3.72,0.85C3.63,0.88,3.59,0.9,3.5,0.93
				C3.53,1,3.55,1.04,3.57,1.11z"/>
			<path class="st1" d="M3.77,0.73C3.82,0.71,3.85,0.71,3.9,0.69C3.97,0.92,4,1.04,4.06,1.26c0.07-0.02,0.11-0.03,0.18-0.04
				c0.01,0.04,0.01,0.06,0.02,0.1C4.14,1.34,4.09,1.35,3.97,1.39C3.89,1.13,3.85,1,3.77,0.73z"/>
			<path class="st1" d="M4.18,0.63c0.05-0.01,0.08-0.01,0.14-0.02c0.04,0.27,0.06,0.41,0.1,0.68C4.38,1.3,4.35,1.3,4.31,1.31
				C4.26,1.04,4.23,0.9,4.18,0.63z"/>
			<path class="st1" d="M4.38,0.6C4.54,0.58,4.63,0.57,4.8,0.57c0,0.04,0,0.06,0,0.1c-0.06,0-0.08,0-0.14,0.01
				c0.01,0.24,0.02,0.35,0.03,0.59c-0.04,0-0.07,0-0.11,0.01C4.56,1.04,4.55,0.92,4.53,0.68c-0.06,0-0.08,0.01-0.14,0.01
				C4.39,0.66,4.38,0.64,4.38,0.6z"/>
			<path class="st1" d="M4.98,0.86c0.07,0,0.1,0,0.17,0.01c0,0.04-0.01,0.06-0.01,0.1c-0.07-0.01-0.1-0.01-0.17-0.01
				c0,0.08,0,0.12-0.01,0.2c0.08,0,0.12,0.01,0.2,0.01c0,0.04-0.01,0.06-0.01,0.1c-0.12-0.01-0.18-0.02-0.3-0.02
				c0-0.28,0-0.41,0-0.69c0.15,0,0.22,0,0.37,0.02c0,0.04-0.01,0.06-0.01,0.1C5.13,0.67,5.08,0.67,4.99,0.67
				C4.99,0.75,4.99,0.78,4.98,0.86z"/>
			<path class="st1" d="M5.59,1.06C5.57,1.08,5.56,1.09,5.54,1.12C5.52,1.2,5.51,1.24,5.49,1.32C5.45,1.31,5.43,1.31,5.39,1.3
				c0.05-0.27,0.07-0.41,0.12-0.68c0.05,0.01,0.08,0.02,0.13,0.03C5.61,0.77,5.6,0.82,5.58,0.94c0,0,0,0,0,0
				c0.09-0.1,0.14-0.15,0.23-0.25C5.87,0.7,5.89,0.71,5.95,0.73c-0.11,0.1-0.16,0.14-0.26,0.25c0.03,0.16,0.04,0.25,0.06,0.41
				C5.7,1.37,5.68,1.37,5.63,1.36C5.62,1.24,5.61,1.18,5.59,1.06z"/>
			<path class="st1" d="M6.17,1.37c-0.05,0.11-0.12,0.14-0.23,0.1c-0.1-0.04-0.14-0.12-0.1-0.22c0-0.01,0-0.01,0.01-0.02
				c0.04,0.01,0.06,0.02,0.11,0.04c0,0.01-0.01,0.01-0.01,0.02c-0.02,0.05,0,0.07,0.03,0.09c0.04,0.02,0.07,0.01,0.09-0.05
				C6.09,1.27,6.09,1.25,6.11,1.2c0,0,0,0,0,0C6.08,1.23,6.04,1.23,5.99,1.21C5.9,1.18,5.88,1.12,5.91,1.02
				C5.92,0.97,5.93,0.95,5.95,0.9c0.03-0.1,0.12-0.14,0.25-0.1c0.13,0.05,0.17,0.14,0.12,0.24C6.26,1.17,6.23,1.24,6.17,1.37z
				 M6.15,1.1C6.17,1.06,6.18,1.03,6.2,0.99c0.02-0.05,0-0.07-0.04-0.09C6.12,0.88,6.09,0.89,6.07,0.94
				C6.05,0.98,6.04,1.01,6.03,1.06c-0.02,0.05,0,0.07,0.04,0.09C6.1,1.16,6.13,1.15,6.15,1.1z"/>
		</g>
	</g>
	<g>
		<g>
			<path class="st1" d="M3.33,8.57C3.39,8.6,3.42,8.62,3.48,8.64C3.45,8.72,3.43,8.76,3.4,8.84c-0.04,0.1-0.13,0.13-0.25,0.07
				S3,8.76,3.05,8.67c0.07-0.12,0.1-0.18,0.17-0.3c0.05-0.09,0.13-0.12,0.23-0.07c0.1,0.05,0.13,0.12,0.08,0.22
				C3.52,8.54,3.52,8.55,3.51,8.58c-0.04-0.02-0.06-0.03-0.1-0.05C3.42,8.5,3.42,8.49,3.44,8.47C3.46,8.42,3.44,8.4,3.41,8.38
				C3.38,8.37,3.35,8.37,3.33,8.41c-0.07,0.13-0.1,0.19-0.16,0.32C3.15,8.78,3.16,8.8,3.2,8.82c0.04,0.02,0.07,0.01,0.09-0.03
				c0.02-0.04,0.03-0.07,0.05-0.11C3.32,8.67,3.31,8.67,3.29,8.66C3.3,8.62,3.31,8.61,3.33,8.57z"/>
			<path class="st1" d="M3.76,8.44C3.69,8.63,3.65,8.73,3.58,8.92C3.57,8.96,3.58,8.99,3.62,9c0.04,0.01,0.07,0.01,0.08-0.04
				c0.06-0.2,0.1-0.29,0.16-0.49c0.04,0.01,0.06,0.02,0.1,0.03C3.91,8.7,3.88,8.8,3.82,8.99c-0.03,0.1-0.11,0.14-0.23,0.1
				C3.47,9.05,3.43,8.97,3.47,8.87C3.54,8.68,3.58,8.59,3.66,8.4C3.7,8.41,3.72,8.42,3.76,8.44z"/>
			<path class="st1" d="M4.28,9.25C4.23,9.25,4.2,9.24,4.15,9.23c0-0.05,0-0.07,0-0.12C4.09,9.1,4.06,9.09,4,9.08
				C3.98,9.12,3.97,9.14,3.95,9.19C3.9,9.18,3.88,9.17,3.83,9.16c0.12-0.24,0.18-0.37,0.29-0.61c0.06,0.02,0.09,0.02,0.16,0.03
				C4.27,8.85,4.27,8.98,4.28,9.25z M4.04,8.99C4.08,9,4.11,9.01,4.15,9.02c0-0.14,0.01-0.21,0.01-0.34c0,0,0,0,0,0
				C4.12,8.8,4.09,8.87,4.04,8.99z"/>
			<path class="st1" d="M4.61,9.29C4.61,9.27,4.6,9.26,4.61,9.21c0-0.04,0-0.06,0.01-0.1c0-0.06-0.02-0.09-0.07-0.09
				c-0.02,0-0.03,0-0.04,0C4.49,9.12,4.48,9.17,4.47,9.28C4.42,9.27,4.39,9.27,4.34,9.26C4.38,9,4.4,8.87,4.43,8.6
				C4.5,8.61,4.53,8.62,4.6,8.62c0.11,0.01,0.16,0.06,0.15,0.16c0,0.02,0,0.03,0,0.05c0,0.07-0.03,0.11-0.08,0.13c0,0,0,0,0,0
				c0.06,0.03,0.08,0.08,0.07,0.15c0,0.04,0,0.06,0,0.1c0,0.03,0,0.06,0.01,0.08C4.69,9.3,4.66,9.3,4.61,9.29z M4.53,8.71
				c-0.01,0.08-0.01,0.12-0.02,0.2c0.02,0,0.03,0,0.05,0c0.04,0,0.07-0.01,0.08-0.06c0-0.03,0-0.04,0.01-0.07
				c0-0.05-0.01-0.07-0.05-0.07C4.56,8.72,4.55,8.71,4.53,8.71z"/>
			<path class="st1" d="M4.83,8.64c0.07,0,0.1,0,0.17,0c0.11,0,0.17,0.05,0.17,0.16c0.01,0.13,0.02,0.2,0.03,0.34
				C5.21,9.23,5.15,9.3,5.02,9.3c-0.08,0-0.12,0-0.21,0C4.82,9.04,4.82,8.9,4.83,8.64z M4.94,8.73c0,0.19,0,0.29,0.01,0.48
				c0.03,0,0.04,0,0.07,0c0.04,0,0.06-0.02,0.06-0.07C5.07,9,5.07,8.93,5.06,8.79c0-0.05-0.02-0.06-0.06-0.06
				C4.98,8.73,4.96,8.73,4.94,8.73z"/>
			<path class="st1" d="M5.23,8.62c0.04,0,0.06-0.01,0.11-0.01C5.37,8.87,5.39,9,5.43,9.27C5.38,9.27,5.35,9.28,5.3,9.28
				C5.27,9.02,5.26,8.88,5.23,8.62z"/>
			<path class="st1" d="M5.93,9.17C5.88,9.18,5.86,9.19,5.81,9.2C5.79,9.15,5.78,9.13,5.76,9.08C5.7,9.1,5.67,9.1,5.6,9.12
				c0,0.05,0,0.07,0,0.12C5.56,9.25,5.53,9.25,5.49,9.26C5.5,8.99,5.5,8.85,5.5,8.58c0.06-0.01,0.09-0.02,0.16-0.03
				C5.76,8.8,5.81,8.92,5.93,9.17z M5.6,9.02C5.65,9.02,5.67,9.01,5.72,9C5.67,8.87,5.64,8.81,5.59,8.68c0,0,0,0,0,0
				C5.6,8.82,5.6,8.89,5.6,9.02z"/>
			<path class="st1" d="M5.96,8.65C5.96,8.65,5.96,8.65,5.96,8.65c0.06,0.18,0.09,0.28,0.15,0.46C6.06,9.13,6.04,9.13,5.99,9.15
				C5.92,8.89,5.88,8.76,5.81,8.51c0.05-0.02,0.08-0.02,0.13-0.04C6.03,8.6,6.08,8.67,6.18,8.8c0,0,0,0,0,0
				C6.13,8.65,6.1,8.58,6.05,8.43C6.09,8.42,6.1,8.41,6.14,8.39c0.1,0.25,0.15,0.37,0.25,0.62C6.34,9.03,6.32,9.04,6.26,9.06
				C6.13,8.9,6.07,8.82,5.96,8.65z"/>
			<path class="st1" d="M6.34,8.29c0.1-0.05,0.17-0.02,0.23,0.07c0,0.01,0.01,0.01,0.01,0.02c-0.04,0.02-0.06,0.03-0.1,0.05
				C6.48,8.43,6.48,8.42,6.47,8.41C6.45,8.37,6.42,8.36,6.39,8.38C6.36,8.39,6.35,8.42,6.36,8.46c0.02,0.04,0.06,0.07,0.16,0.09
				C6.65,8.57,6.7,8.6,6.74,8.67c0.05,0.09,0.02,0.18-0.1,0.24C6.52,8.96,6.44,8.93,6.4,8.84C6.39,8.82,6.39,8.81,6.38,8.8
				c0.04-0.02,0.07-0.03,0.11-0.05C6.5,8.77,6.5,8.78,6.51,8.79C6.53,8.84,6.56,8.84,6.6,8.82C6.63,8.8,6.65,8.78,6.63,8.73
				C6.61,8.69,6.57,8.67,6.47,8.65C6.34,8.63,6.29,8.59,6.26,8.51C6.22,8.42,6.25,8.34,6.34,8.29z"/>
		</g>
	</g>
	<path class="st1" d="M6.06,7.34c0.11-0.11,0.87-0.69,1.29-1.01L6.55,6.49L5.4,6.29c0,0-0.81,0.91-0.58,1.54
		C5.14,7.7,5.95,7.45,6.06,7.34z"/>
	<path class="st3" d="M7.57,5.78H7.31H7.19L7.15,5.9C7.04,6.24,6.59,6.56,5.85,6.96C5.39,7.21,4.93,7.4,4.78,7.46
		c-0.22-0.1-0.54-0.23-0.89-0.4c-0.7-0.34-1.47-0.7-1.62-1.14L2.19,5.7L2.06,4.57L1.99,4.35L1.82,4.6v1.23L1.81,5.86l0,0.03
		C1.85,6.4,2.36,6.94,3.33,7.48c0.36,0.2,0.72,0.37,0.96,0.47c0.14,0.06,0.25,0.1,0.31,0.13c0.14,0.05,0.15,0.06,0.18,0.06
		c0.02,0,0.06,0,0.48-0.18c0.23-0.1,0.57-0.26,0.93-0.45c0.94-0.52,1.46-1.03,1.55-1.52L7.82,5.8L7.57,5.78z"/>
	<ellipse class="st1" cx="7" cy="8.52" rx="0.08" ry="0.06"/>
	<ellipse class="st1" cx="2.78" cy="8.46" rx="0.08" ry="0.06"/>
</g>
</svg>
