<?xml version="1.0" encoding="utf-8"?>
<!-- Generator: Adobe Illustrator 24.2.1, SVG Export Plug-In . SVG Version: 6.00 Build 0)  -->
<svg version="1.1" id="Layer_1" xmlns="http://www.w3.org/2000/svg" xmlns:xlink="http://www.w3.org/1999/xlink" x="0px" y="0px"
	 viewBox="0 0 250 100" style="enable-background:new 0 0 250 100;" xml:space="preserve">
<style type="text/css">
	.st0{fill:#7A90C1;}
	.st1{font-family:'BebasNeueBold';}
	.st2{font-size:30.7993px;}
	.st3{fill:#DBDADE;}
	.st4{fill:#2E2D3C;}
	.st5{fill:#DB913E;}
	.st6{fill:#131312;}
	.st7{fill:#11100F;}
	.st8{fill:#FFFFFF;}
	.st9{opacity:0.25;fill:#FFFFFF;}
	.st10{fill:#1C1919;}
	.st11{fill:#262423;}
	.st12{fill:#282C1C;}
	.st13{fill:#232120;}
	.st14{fill:#060707;}
</style>
<text transform="matrix(1 0 0 1 120.0568 42.616)"><tspan x="0" y="0" class="st0 st1 st2">Elite K9</tspan><tspan x="0" y="32.2" class="st0 st1 st2">Guardians</tspan></text>
<path class="st3" d="M40.82,86.61l15.08,5.57l21.65-8.84l17.79-17.49l4.83-38.44l3.45-10.77c0,0-6.35,4.04-17.37-2.11
	S56.34,5.01,56.34,5.01L37.73,9.73l-18.75,6.73l-5.61,5.77l-1.35,21.91l3,17.05l6.28,11.59L40.82,86.61z"/>
<path class="st4" d="M56.34,86.9c0,8.3-5.76,4.34-10.74,4.34s-8.96-1.31-8.96-9.61s4.07-15.66,9.01-15.03
	C55.75,67.88,56.34,78.6,56.34,86.9z"/>
<path class="st5" d="M91.07,65.85c0,0-0.89,0.22-1.45,0.76c-2.9,2.77-11.67,11.56-17.49,14.62c-6.96,3.65-6.57,5.57-6.57,5.57
	s10.26-5.45,11.03-5.45c0.77,0,11.07-5.46,14.16-10.84C93.83,65.13,91.07,65.85,91.07,65.85z"/>
<g>
	<path class="st0" d="M102.92,13.22c0,0-1.35,0.26-3.28,0.26c-1.3,0-2.56-0.12-3.73-0.35c-1.76-0.34-5.39-1.83-9.23-3.4
		c-8.51-3.48-20.16-8.25-29.21-8.25c-0.39,0-0.86,0-1.14,0c-0.29,0-0.75,0-1.14,0c0,0,0,0,0,0c-9.04,0-20.65,4.76-29.13,8.24
		c-3.83,1.57-7.46,3.06-9.21,3.4c-1.17,0.23-2.43,0.35-3.73,0.35c-1.93,0-3.28-0.26-3.29-0.26L2.3,11.74l3.79,6.63
		c3.2,5.59,4.69,30.52,4.88,44.91l0,0.12l0.01,0.12c0.64,7.94,8.44,16.17,23.19,24.46c5.46,3.07,10.86,5.56,14.42,7.11
		c6.67,2.9,7.27,2.9,7.8,2.9c0.53,0,1.13,0,7.8-2.9c3.56-1.55,8.95-4.04,14.42-7.11c14.75-8.29,22.55-16.51,23.19-24.46l0.01-0.12
		l0-0.12c0.19-14.4,1.67-39.32,4.88-44.91l3.84-6.7L102.92,13.22z M9.14,16.64c0,0,0.03,0.01,0.06,0.01
		C9.17,16.65,9.14,16.64,9.14,16.64z M16.98,19.8c-0.04,0-0.08,0-0.12,0c-0.03,0-0.06,0-0.09,0C16.84,19.8,16.91,19.8,16.98,19.8z
		 M91.16,61.91C90.7,66.65,84.4,72.65,73.4,78.83c-7.13,4-14.26,6.96-17.06,8.07c-2.79-1.11-9.91-4.07-17.02-8.07
		c-10.97-6.18-17.25-12.18-17.71-16.92c-0.05-3.56-0.47-26.55-3.4-38.65c1.15-0.06,2.27-0.2,3.35-0.41
		c2.26-0.44,5.53-1.79,9.68-3.49c7.23-2.97,17.13-7.03,24.06-7.03c0.29,0,0.58,0.01,0.85,0.02l0.19,0.01l0.19-0.01
		c0.27-0.01,0.56-0.02,0.86-0.02c6.94,0,16.87,4.07,24.13,7.03c4.15,1.7,7.43,3.04,9.69,3.48c1.08,0.21,2.2,0.35,3.35,0.41
		C91.63,35.36,91.21,58.34,91.16,61.91z M95.91,19.8c-0.04,0-0.08,0-0.12,0c0.07,0,0.14,0,0.21,0C95.97,19.8,95.94,19.8,95.91,19.8z
		 M103.57,16.66c0.03-0.01,0.06-0.01,0.06-0.01S103.6,16.65,103.57,16.66z"/>
	<path class="st4" d="M55.61,37.97c0,0,1.72-5.76,2.51-7.17c0.78-1.4-0.16-2.65-0.63-4.36c-0.47-1.71-2.04-10.9-2.19-12.77
		c-0.16-1.87-1.41-6.7-2.66-6.85c-1.25-0.16-5.64,3.74-5.64,3.74l-6.58,12.62c0,0-0.33-0.1-1.05-0.22c-0.9-0.25-2.26-0.48-4.13-0.4
		c-0.02,0-0.05,0-0.07,0c-0.02,0-0.05,0-0.07,0c-1.87-0.08-3.23,0.15-4.13,0.4c-0.72,0.12-1.05,0.22-1.05,0.22l-6.58-12.62
		c0,0-4.39-3.89-5.64-3.74c-1.25,0.16-2.51,4.98-2.66,6.85c-0.16,1.87-1.72,11.06-2.19,12.77c-0.47,1.71-1.41,2.96-0.63,4.36
		c0.78,1.4,2.51,7.17,2.51,7.17s0.31,4.83,0.78,5.45c0.47,0.62-2.51,1.4-2.66,6.23c-0.16,4.83-0.47,8.57,0.31,10.44
		c0.78,1.87,0.78,1.87,0.78,1.87l1.1-0.78c0,0,2.93,7.13,6.87,13.31l1.15,0.2l15.37,10.38l-0.03,0.5c1.65-1.28,3.85-3.25,6.43-6.16
		c5.64-6.39,10.5-18.23,10.5-18.23l1.1,0.78c0,0,0,0,0.78-1.87c0.78-1.87,0.47-5.61,0.31-10.44c-0.16-4.83-3.13-5.61-2.66-6.23
		C55.3,42.8,55.61,37.97,55.61,37.97z"/>
	<g>
		<path class="st4" d="M147.42,25.39c0.03,0,0.06,0,0.09,0c0.04,0,0.08,0,0.12,0C147.56,25.39,147.49,25.4,147.42,25.39z"/>
	</g>
	<g>
		<path class="st4" d="M111.52,49.27c-0.52-0.87-7.73-5.88-8.18-6.01c0,0,0,0,0,0c0,0,0,0,0,0c0.09-0.58,0.24-1.16,0.27-1.75
			c0.18-3.14,0-6.14-3.21-7.93l0,0c-0.29-0.22-0.58-0.43-0.87-0.65c0,0,0,0,0,0c-0.14-0.07-0.29-0.14-0.43-0.21
			c-0.05-2.16,0.15-4.29-0.39-6.49c-0.66-2.68,3.41-10.26,2.95-10.76c-0.55-0.59-5.43,3.84-5.85,4.84h0c0,0,0,0,0,0
			c-0.28,0.63-0.56,1.27-0.84,1.9c-0.22,0.87-0.44,1.74-0.65,2.6h0c0,0,0,0,0,0c-0.28,0.31-0.55,0.62-0.83,0.93
			c-1,1.05-1.78,2.21-1.92,3.7h0c-1.08,0.5-2.26,0.37-3.39,0.46c-2.51,0.2-5.11-0.21-7.47,0.92c-1.04,0.49-1.59,0.19-2.36-0.49
			c-1.88-1.66-5.69-7.23-7.11-8.1c-2.02-1.98-7.89-6.07-10.55-7.09c-0.86-0.33-1.87-0.75-2.55,0.08c-0.79,0.97,0.21,1.66,0.77,2.31
			c1.27,1.49,2.66,2.88,3.64,4.59c0.62,1.38,0.71,2.98,1.82,4.15c-0.33,1.5-0.31,3.83-0.31,4.51c-0.01,0.92-0.12,2.39-0.19,3.83
			c-0.49,0.49-0.61,1.15-0.79,1.78c-1.65,3.98,0.05,7.74,3.09,10.22c1.66,1.36,1.74,2.55,0.83,4.28c-0.87,1.66-1.89,3.3-2.11,5.24
			c-2.35,6.41-0.58,12.06,3.26,17.33c0.37,0.5,9.83,5.9,12.38,6.09c3.69,0.28,10.87-5.85,11.91-6.48c2.23-1.36,1.23-6.85,1.48-7.42
			c0,0,0,0,0,0c0,0,0,0,0,0c0.19-1.88,1.99-2.59,2.9-3.94l0,0c2.12-0.04,4.24-0.07,6.36-0.11c1.28-0.44,2.92,0.02,3.66-1.29
			l0.63-0.62c2.83-0.61,3.62-2.24,3.21-5.38C111.23,52.69,113.09,51.28,111.52,49.27z M100.91,16.52L100.91,16.52
			C100.91,16.52,100.91,16.52,100.91,16.52C100.91,16.52,100.91,16.52,100.91,16.52z M100.91,16.52c0,0.02,0.01,0.03,0.01,0.05
			c-0.02-0.01-0.04-0.02-0.06-0.02C100.88,16.54,100.89,16.53,100.91,16.52z M85.64,38.7C85.64,38.7,85.64,38.7,85.64,38.7
			C85.64,38.7,85.64,38.7,85.64,38.7C85.64,38.7,85.64,38.7,85.64,38.7C85.64,38.7,85.64,38.7,85.64,38.7
			C85.64,38.7,85.64,38.7,85.64,38.7z M85.74,35.87c-0.01,0-0.01,0.01-0.02,0.01c0-0.01,0-0.01,0-0.02
			C85.73,35.86,85.74,35.86,85.74,35.87z M101.82,53.88c0,0-0.01,0-0.01,0c0,0,0,0,0,0c-0.03-0.05-0.07-0.09-0.1-0.14
			c0.04,0.02,0.09,0.04,0.13,0.05C101.83,53.82,101.83,53.85,101.82,53.88z M73.15,35.02C73.15,35.02,73.15,35.02,73.15,35.02
			C73.15,35.02,73.15,35.02,73.15,35.02C73.15,35.02,73.15,35.02,73.15,35.02z"/>
		<path class="st6" d="M98.31,38.62c-0.05,0.81,2.5,1.65,2.5,1.65l-0.56,0.4c0,0-3.29-1.76-3.05-2.95c0.24-1.2,1.45-2.71,2.09-2.79
			c0.64-0.08,1.85,0.16,1.12,1.04C99.69,36.83,98.45,36.54,98.31,38.62z"/>
		<path class="st6" d="M97.91,38.87c0,0,0.47-2.44,1.67-2.33c1.21,0.11,2.02,0.85,2.02,0.85s1.56,0.16,0.08,1.48
			C100.21,40.2,97.91,38.87,97.91,38.87z"/>
		<path class="st7" d="M80.72,40.33c0,0,2.09-1.75,3.01-1.83c0.92-0.08,2.01-0.42,2.76,0c0.75,0.42,2.09,2.25,2.09,2.25
			s-0.5,0.5-2.51,0.67C84.07,41.58,80.72,40.33,80.72,40.33z"/>
		<ellipse class="st8" cx="84.34" cy="40.13" rx="0.91" ry="0.79"/>
		<ellipse class="st8" cx="99.35" cy="37.89" rx="0.91" ry="0.79"/>
		<path class="st9" d="M98.31,35.63c0,0,0.13-1.25,1.26-1.37s1.51-0.12,1.51-0.12s-1.53-1.47-2.2-1.06
			c-1.31,0.81-1.76,1.31-1.51,1.81C97.62,35.38,98.31,35.63,98.31,35.63z"/>
		<path class="st9" d="M90.33,35.88c0,0-0.06-1.75-2.57-1.62c-2.51,0.12-3.01,1.37-3.01,1.37l4.08,0.37L90.33,35.88z"/>
		<path class="st9" d="M69.42,36.26c0,0,1.38,0.69,1.57,0c0.19-0.69-1.26-4.68-0.88-6.99c0.38-2.31,0-5.12-1.88-4.18
			c-1.88,0.94-1.19,3.56-1.19,5.06c0,1.5-0.75,4.25-1.19,5.62c-0.44,1.37-0.25,5.18,1.82,5.37c2.07,0.19,3.83-0.75,3.64-2.18
			s-1.82,0-2.2-1.69C68.73,35.57,68.67,35.82,69.42,36.26z"/>
		<path class="st9" d="M95.1,42.31c0.66,0.48,5.65,3.43,5.65,3.43s0-1.19,1.7-0.69c1.7,0.5,1.95,1.31,1.82,1.5
			c-0.07,0.11-0.52,0.38-0.89,0.6c-0.27,0.16-0.53,0.14-0.49,0.28c0.18,0.62,2.57-0.12,2.57-0.12s2.51,0.37,2.7-0.31
			c0.28-1.03-8.67-6.43-8.67-6.43s-1.51-1-0.75,0.56c0.75,1.56,1.17,1.55,0.82,1.94c-0.57,0.62-4.27-4.25-5.59-3.31
			C93.4,40.16,94.41,41.81,95.1,42.31z"/>
		<path class="st9" d="M106.52,58.73c0,0-4.68,1.39-6.42,1.53c-1.75,0.14-7.33-0.07-7.89,0s-4.06,0.46-4.34,0.38
			c-1.16-0.34-0.92-0.31-1.75-0.97c-1.29-1.04,0.19-3.87,0.57-2.37c0.38,1.5,8.92,1.94,11.3,1.94s2.39-4.81,2.39-4.81l2.13,0.19
			c0,0,0.5-0.81-0.69-1.56c-1.19-0.75-3.08-3.18-3.08-3.18s-0.31-0.75-0.06-2.06c0.25-1.31-3.39-1.5-4.46-1.87
			c-1.07-0.37-0.57,6.93-0.57,6.93s0.82,0.56-0.69,0.56s-1.72-1.66-2.66-3.35c-0.94-1.69-4.61-1.21-5.61-0.67
			c-2.05,1.11-2.81,4.42-3.43,4.54c-1.3,0.25-1.13-6.99-4.25-7.95c-1.88-0.58-1.91,0.65-0.93,4.74c1.04,4.31,4.76,7.75,5.2,8.81
			c0.44,1.06-0.44,5.62-0.44,5.62l-2.01-3.93c0,0-2.95-5.87-3.08-2.43c-0.13,3.43,5.21,10.11,5.21,10.11s-1,2.75,0.69,2.68
			c1.7-0.06,4.27-1.75,6.66-3.56c2.39-1.81,0.25-1.94-0.82-0.75c-1.07,1.19-3.34,2.57-4.56,2.23c-0.71-0.2-0.63-0.71,1.63-2.46
			c1.53-1.18,2.16-3.55,2.09-5.36c0.24,0.44,0.45,0.78,0.45,0.78s2.93,0.42,3.28,0.35s6.11-0.18,6.11-0.18l2.27-1.07
			c0,0,2.79-0.21,3.35-0.21s1.46,1.24,2.19,0.69c0.74-0.55,2.48-1.73,2.48-1.73l0.42-2.29L106.52,58.73z"/>
		<path class="st6" d="M80.56,36.92c0,0,3.77-1.04,4.14-0.96c0.38,0.08,1.67-1.71,0.38-1.46c-1.3,0.25-3.77-0.12-4.4,1
			c-0.63,1.12-1,1.06-0.8,1.42C79.97,37.07,80.56,36.92,80.56,36.92z"/>
		<path class="st6" d="M87.77,43.68c-0.05,0-0.1,0-0.15,0l-0.59-0.01c-2.78-0.04-4.02-0.07-4.38-0.43
			c-0.05-0.05,3.53,0.38,5.68-0.16c1.48-0.37,1.75-1.62,1.84-2.16c0.11-0.63-0.59-1.86-2.3-2.54c-1.87-0.74-4.16-0.9-4.19-0.9
			c-0.12,0-0.23-0.1-0.23-0.22c0-0.12,0.1-0.22,0.23-0.22c0.01,0,1.39-0.01,2.47-0.44c1.02-0.42,2.18-0.11,2.67,0.03
			c0.08,0.02,0.13,0.04,0.17,0.04c0.27,0.04,0.99,0.76,1.55,1.36c0.06,0.09,0.95,1.5,0.69,2.98C90.99,42.41,90.53,43.68,87.77,43.68
			z"/>
		<path class="st10" d="M85.12,47.2c0,0-4.73-6.2-7.58-6.16c-2.85,0.04-2.85,0.04-2.85,0.04s1.76-4.37,1.09-4.41
			c-0.67-0.04-2.18,3.45-2.34,3.83s-0.92,1.91-0.92,1.91S71.14,42,70.93,43c-0.21,1,7.54-2.37,9.46,1.42
			c1.93,3.79,2.55,3.95,2.55,3.95L85.12,47.2z"/>
		<path class="st4" d="M111.96,54.46c-0.84-0.4-1.64-0.03-2.41,0.21c-2.02,0.63-3.99,0.68-5.95-0.16c-0.14-0.03-0.28-0.04-0.42-0.06
			c-0.12,0.2-0.32,0.32-0.52,0.45c-1.51-0.23-2.29,0.2-2.27,1.93c0.01,1.77-1.32,2.83-2.88,2.99c-3.31,0.33-6.64,0.4-9.78-1.13
			c-0.41-0.2-1.05-1.28-1.64-0.25c-0.47,0.81,0.86,1.89,0.86,1.9c1.66,0.69,3.41,0.86,5.18,0.92c1.63-0.37,3.3-0.09,4.94-0.24
			c1.35-0.09,2.71-0.02,4.02-0.42c1.74-0.24,3.32-1.26,5.15-1.09c0.52,0.12,1.04,0.26,1.58,0.19
			C110.66,59.08,112.38,57.6,111.96,54.46z"/>
		<path class="st11" d="M102.79,56.74c0,0-3.12-3.29-3.02-5.36c0.09-2.07,2.84-3.38,7.56-3.1c6.32,0.38,6.52,3.85,6.52,3.85
			s-0.66,2.54-2.55,4.13c-1.72,1.45-3.78,1.13-5.39,1.22C104.3,57.58,102.79,56.74,102.79,56.74z"/>
		<path class="st12" d="M96.51,62.65c-0.03,0-2.89,0-7.25-0.14c-4.71-0.15-4.84-2.82-4.56-2.84c0.28-0.02,0.91,1.71,4.6,1.83
			c4.02,0.13,6.77-0.09,7.17-0.09c0.7-0.14,3.58-0.48,4.16-0.48c0.52,0,2.96,0.11,3.48,0.14c1.17-0.38,2.91-1.19,3.14-1.78
			c0.12-0.32,0.08-0.62-0.12-0.83c-0.26-0.28-0.72-0.35-1.24-0.2c-0.27,0.08-0.61,0.22-1,0.38c-1.52,0.62-4.06,1.65-8.63,1.76
			c-3.77,0.09-9.38,0.14-10.08-1.7c-0.1-0.26,0.03-0.55,0.3-0.65c0.26-0.1,0.56,0.03,0.65,0.3c0.43,0.69,3.89,1.56,10.11,1.41
			c4.39-0.11,5.72-1.42,7.27-2.05c0.41-0.17,0.77-0.31,1.09-0.41c0.89-0.27,1.74-0.09,2.27,0.48c0.46,0.49,0.59,1.2,0.33,1.88
			c-0.49,1.29-3.31,2.24-3.87,2.42c-0.06,0.02-0.12,0.02-0.18,0.02c-0.03,0-2.97-0.14-3.52-0.14c-0.38,0-2.66,0.43-4.01,0.69
			C96.57,62.64,96.54,62.65,96.51,62.65z"/>
		<path class="st13" d="M84.74,60.59c0,0,1.98,3.52,0.43,5.64s-5.25,5.78-4.96,5.92c0.28,0.14,6.38-2.4,7.23-4.65
			c0.85-2.26,0.85,2.4-2.69,3.95c-3.54,1.55-4.96,2.68-4.96,2.68s2.55,0.99,5.53-0.42c2.98-1.41,7.09-5.07,8.65-7.19
			s3.26-4.23,3.26-4.23s-4.82,0-8.08-0.14C87.16,62.06,84.74,60.59,84.74,60.59z"/>
		<path class="st14" d="M102.13,55.52c0.57,0,5.48-0.75,6.05-1.5c0.57-0.75,1.51,1.13,1.51,1.13s-1.51,1.69-3.97,1.69
			S102.13,55.52,102.13,55.52z"/>
		
			<ellipse transform="matrix(0.9921 -0.1254 0.1254 0.9921 -5.655 13.601)" class="st8" cx="105.19" cy="51.71" rx="2.66" ry="0.79"/>
	</g>
	<g>
		<path class="st9" d="M46.84,33.55c0,0-0.41,0.16-0.74,0.16c-0.33,0-0.99-1.14-1.77-0.82c-0.78,0.33-2.71,2.9-2.71,2.9l-4.24-1.28
			l-1.22,0.09l-1.23-0.27l-3.97,0.23c0,0-2.85-1.03-2.98-0.99s-1.61-0.73-2.84-0.08c-1.23,0.65-1.16,0.78-1.16,0.78
			s1,0.61,1.08,1.18s1.56,1.02,1.93,0.98s-0.37-0.33-1.36,1.18c-0.99,1.51-3,10.25-2.83,11.03s-1.11-1.14-1.11-1.14
			s-2.59,3.1-1.27,12.05s3.37,11.88,3.37,11.88s-6.18-6.1-7.16-10.75c-0.99-4.66-1.13-2.27-1.13-2.27s-1.19-1.96-0.53-4.66
			c0.66-2.7,3.16-7.19,3.16-7.19l-0.82-8.21L22.07,28c0,0,1.4-3.68,0-6.86s-3.12-7.43-3.12-7.43l-2.71,4l1.81-8l4.6,2.94l7.31,14.37
			c0,0,2.46-1.39,6.9-1.23c4.44,0.16,6.9,2.21,6.9,2.21l3.04,3.43C46.8,31.43,46.78,33.61,46.84,33.55z"/>
		<g>
			<path class="st4" d="M44.26,37.52c0.65-0.5,3.25-3.66,3.25-3.66s-1.93-1.19-3.16-1.23c-0.89-0.03-1.17-0.04-1.17-0.04
				s-1.62,1.12-3.08,1.14c-2.64,0.03-3.14-2.54-3.14-2.54s-0.52,1.52-1.75,1.53c0,0-0.01,0-0.01,0v2.23
				c1.81,0.06,3.47,0.38,5.09,2.54c1.73,2.3,5.85,8.51,5.85,8.51l1.3-0.47c0,0-4.19-6.86-4.84-7.57
				C41.95,37.23,43.61,38.02,44.26,37.52z"/>
			<path class="st4" d="M33.46,31.19c0,0-0.51,2.57-3.14,2.54c-1.46-0.01-3.08-1.14-3.08-1.14s-0.28,0.02-1.17,0.04
				c-1.23,0.04-3.16,1.23-3.16,1.23s2.6,3.16,3.25,3.66c0.65,0.5,2.31-0.29,1.66,0.43c-0.65,0.72-3.54,8.04-3.54,8.04
				s4.12-6.21,5.85-8.51c1.63-2.15,3.28-2.48,5.09-2.54v-2.23c0,0-0.01,0-0.01,0C33.98,32.71,33.46,31.19,33.46,31.19z"/>
		</g>
		<path class="st8" d="M40.89,35.17c0.04,0.2,1.19,0.81,2.38,0.81s1.52-1.02,1.52-1.02s0.01-0.98-1.35-0.86
			c-1.47,0.13-1.16,0.48-1.67,0.62C41.19,34.87,40.85,34.9,40.89,35.17z"/>
		<path class="st8" d="M29.68,35.17c-0.04,0.2-1.19,0.81-2.38,0.81c-1.19,0-1.52-1.02-1.52-1.02s-0.01-0.98,1.35-0.86
			c1.47,0.13,1.16,0.48,1.67,0.62C29.38,34.87,29.73,34.9,29.68,35.17z"/>
		<path class="st8" d="M38.65,44.32h-7.25l-0.14,0.79l0.29,0.56c0,0,1.34-0.02,1.87,0.49c0.53,0.51,1.06,1.34,1.06,1.34h1.1
			c0,0,0.53-0.83,1.06-1.34c0.53-0.51,1.87-0.49,1.87-0.49l0.29-0.56L38.65,44.32z"/>
		<path class="st9" d="M44.46,45.92c0,0-4.1-5.45-4.9-7.12c-0.79-1.67-3.1-2.11-4.29-2.13c-0.08,0-0.16,0-0.24,0
			c-0.08,0-0.16,0-0.24,0c-1.19,0.02-3.5,0.45-4.29,2.13c-0.79,1.67-4.9,7.12-4.9,7.12l-0.26,5.11c0,0,1.96,3.49,3.1,3.39l4.63-2.84
			c0,0,0.99-1.27,1.03-2.4c0.02-0.62-3.88-3.68-3.88-3.68l0.84-1.97H39l0.84,1.97c0,0-3.9,3.06-3.88,3.68
			c0.04,1.13,1.03,2.4,1.03,2.4l4.63,2.84c1.14,0.09,3.1-3.39,3.1-3.39L44.46,45.92z"/>
	</g>
</g>
<path class="st4" d="M75.52,85.06c1.63-1.62,13.04-10.3,19.31-15.04l-11.89,2.32l-17.3-2.91c0,0-12.18,13.63-8.67,23
	C61.85,90.53,73.85,86.72,75.52,85.06z"/>
<path class="st0" d="M98.21,61.76h-3.91h-1.9l-0.58,1.8c-1.62,5.03-8.31,9.81-19.33,15.81c-7.02,3.81-13.77,6.56-16.11,7.48
	c-3.34-1.46-8.08-3.47-13.36-6.01c-10.43-5.01-22.03-10.46-24.28-17.08l-1.09-3.19l-1.97-16.93l-1.06-3.27l-2.51,3.65l0,18.39
	l-0.17,0.5l0.04,0.52c0.61,7.62,8.26,15.61,22.73,23.73c5.43,3.05,10.79,5.53,14.33,7.07c2.03,0.88,3.68,1.55,4.7,1.96
	c2.05,0.81,2.17,0.86,2.73,0.86c0.36,0,0.91,0,7.16-2.71c3.41-1.47,8.58-3.85,13.87-6.78c14.04-7.77,21.87-15.42,23.26-22.75
	l1.08-2.84L98.21,61.76z"/>
</svg>
